<?xml version="1.0" standalone="no"?>
<!DOCTYPE svg PUBLIC "-//W3C//DTD SVG 20010904//EN"
 "http://www.w3.org/TR/2001/REC-SVG-20010904/DTD/svg10.dtd">
<svg version="1.0" xmlns="http://www.w3.org/2000/svg"
 width="1024.000000pt" height="1024.000000pt" viewBox="0 0 1024.000000 1024.000000"
 preserveAspectRatio="xMidYMid meet">
<metadata>
Created by potrace 1.16, written by Peter Selinger 2001-2019
</metadata>
<g transform="translate(0.000000,1024.000000) scale(0.100000,-0.100000)"
fill="#000000" stroke="none">
<path d="M0 5120 l0 -5120 5120 0 5120 0 0 5120 0 5120 -5120 0 -5120 0 0
-5120z m5611 3196 c397 -64 673 -151 981 -307 191 -96 295 -158 456 -273 275
-196 455 -374 705 -697 309 -400 554 -1020 612 -1549 28 -256 19 -642 -21
-885 -44 -267 -143 -614 -245 -850 -85 -199 -268 -496 -434 -705 -88 -111
-311 -338 -440 -449 -191 -164 -410 -305 -670 -432 -325 -158 -653 -257 -1010
-305 -252 -33 -646 -29 -918 11 -464 68 -941 257 -1351 535 -181 122 -270 196
-455 375 -172 168 -224 228 -353 408 -238 332 -371 613 -491 1032 -123 429
-156 915 -91 1360 31 216 124 545 219 775 50 120 181 384 235 470 118 191 321
439 506 620 474 462 1115 770 1809 869 207 29 206 29 520 26 242 -3 301 -7
436 -29z"/>
<path d="M4915 7673 c-113 -10 -343 -48 -445 -73 -311 -78 -543 -182 -822
-366 -165 -109 -250 -178 -396 -322 -316 -311 -520 -653 -648 -1088 l-27 -91
-67 -12 c-124 -23 -203 -72 -269 -170 -96 -140 -126 -243 -126 -426 1 -140 17
-214 72 -324 20 -40 56 -93 80 -118 53 -54 152 -102 227 -110 l55 -6 21 -71
c123 -417 249 -680 459 -961 90 -119 352 -384 471 -477 363 -279 785 -461
1235 -529 190 -29 558 -32 750 -5 446 61 907 258 1245 531 311 250 536 519
710 849 93 176 182 406 225 586 9 41 19 80 20 86 2 8 64 13 187 17 101 3 200
11 222 17 l38 12 -6 51 c-4 29 -23 97 -43 152 -19 55 -37 111 -40 125 -2 14 8
61 22 105 40 117 47 294 16 388 -57 171 -156 256 -324 281 l-80 11 -42 130
c-82 252 -166 428 -299 628 -440 663 -1086 1065 -1876 1168 -134 17 -414 24
-545 12z m-1650 -2261 l0 -182 163 0 162 0 0 168 0 167 100 3 100 3 -2 -436
c-1 -240 -5 -438 -8 -440 -4 -2 -48 -7 -98 -11 l-92 -7 -2 194 -3 194 -162 3
-163 3 0 -190 0 -191 -93 0 -94 0 0 420 c0 231 2 431 4 445 4 17 12 25 27 25
11 0 28 5 36 10 8 6 40 9 70 8 l55 -3 0 -183z m2296 167 l109 -13 0 -432 0
-431 -87 -7 c-47 -3 -88 -5 -90 -2 -2 2 -4 134 -4 292 1 159 -3 295 -8 302 -5
9 -19 -27 -40 -105 -70 -261 -124 -449 -133 -465 -7 -15 -23 -18 -88 -18 l-79
0 -15 53 c-28 97 -84 291 -109 377 -14 47 -30 104 -36 128 -7 23 -15 42 -19
42 -4 0 -7 -132 -7 -294 0 -162 -3 -297 -6 -301 -4 -3 -43 -8 -87 -9 l-80 -3
-4 156 c-3 86 -5 281 -7 434 l-2 277 33 1 c137 4 252 -2 260 -13 9 -14 30 -84
77 -258 17 -63 44 -155 60 -205 26 -83 29 -88 40 -65 10 23 85 289 132 465 10
38 23 71 29 73 5 2 10 13 10 24 0 16 5 19 21 15 12 -3 70 -11 130 -18z m-2788
-23 c34 -16 71 -45 92 -71 40 -49 75 -137 75 -190 l0 -35 -84 0 -85 0 -15 53
c-30 100 -82 132 -175 107 -63 -17 -96 -54 -122 -140 -18 -61 -21 -87 -16
-159 7 -108 31 -186 66 -222 34 -33 98 -52 147 -43 46 8 99 62 115 114 l12 40
95 0 95 0 -7 -41 c-11 -70 -45 -127 -118 -194 -78 -72 -133 -95 -222 -95 -157
0 -274 77 -324 213 -115 305 -33 607 182 677 90 30 213 24 289 -14z m4248 14
l169 0 0 -81 0 -82 -182 4 -183 4 -3 -97 -3 -98 183 -2 183 -3 0 -72 0 -71
-35 -6 c-19 -3 -101 -6 -182 -6 l-148 0 0 -101 c0 -60 4 -98 9 -94 6 3 91 2
190 -1 l181 -7 0 -78 0 -78 -285 1 -285 0 -2 267 c-3 269 -3 342 0 508 l2 92
53 4 c28 3 79 3 111 1 32 -2 135 -4 227 -4z m818 -25 c63 -35 105 -82 126
-144 35 -104 10 -196 -76 -280 -69 -67 -72 -45 25 -268 36 -84 66 -155 66
-158 0 -3 -44 -5 -98 -5 l-99 0 -64 168 -64 167 -51 3 -51 3 -6 -83 c-4 -46
-7 -117 -7 -159 l0 -77 -45 -6 c-25 -4 -65 -4 -88 -1 l-44 7 -6 338 c-3 187
-3 382 0 435 l6 96 211 -3 211 -3 54 -30z m-1564 10 c87 -19 133 -54 159 -121
35 -93 14 -205 -49 -264 l-25 -24 44 -27 c56 -35 86 -95 86 -170 -1 -70 -25
-123 -82 -175 -77 -71 -126 -80 -416 -76 l-162 2 2 428 3 427 35 6 c72 13 334
9 405 -6z m-1890 -5 c4 -6 53 -149 110 -318 57 -169 122 -358 145 -421 22 -63
38 -116 36 -119 -3 -2 -51 -5 -108 -6 l-102 -1 -29 103 -30 102 -131 0 -132 0
-29 -105 -29 -105 -103 0 c-57 0 -103 4 -103 8 0 10 19 74 145 487 53 176 103
334 109 350 l13 30 116 2 c70 2 118 -1 122 -7z"/>
<path d="M7550 5305 l0 -125 39 0 c70 0 145 19 169 44 13 12 28 42 33 66 20
87 -44 140 -168 140 l-73 0 0 -125z"/>
<path d="M6020 5320 l0 -100 86 0 c118 0 163 28 164 102 0 80 -30 98 -160 98
l-90 0 0 -100z"/>
<path d="M6020 4959 l0 -111 116 4 c109 3 116 4 134 28 24 31 26 97 4 128 -27
39 -73 55 -166 58 l-88 3 0 -110z"/>
<path d="M4247 5252 c-16 -59 -35 -127 -43 -151 -8 -25 -12 -46 -9 -49 6 -6
168 -3 174 3 8 9 -78 305 -89 305 -3 0 -18 -48 -33 -108z"/>
</g>
</svg>
